<svg id="White" xmlns="http://www.w3.org/2000/svg" viewBox="0 0 1192 365.64"><defs><style>.cls-1{fill:#fff;}</style></defs><title>VirtusonicLogoWhite</title><path class="cls-1" d="M43.47,365.4c-10.28,5.21,3.82-19.79,22.07-40.47,20.93-23.7,55.61-47.35,65.26-42.16,10.88,5.85-17.59,54.16-15.67,135.88,0.79,33.61,12.4,65.69,19.31,80.72,1.52-2.23,23.25-75.74,86.45-141.37C309,266.5,384.57,228.07,397.5,227.2,420,225.7,304.29,305,251.33,368.45,175.26,459.58,163.59,518.38,161.67,526c-1.52,4.87-13.71,15.24-19.24,18.29s-12.11,4.57-19.72,4.57q-5,0-9.52-7.62t-12.11-28.78c-6.3-17-16.67-37.19-21.14-91.57-3.2-65.26,30.07-105.71-2.56-80.12" transform="translate(-40 -227.18)"/><path class="cls-1" d="M239.94,459.64v0.12q4-22.64,4-25.87,0-9.2,4-15.42a12.72,12.72,0,0,1,11.26-6.22q8.46,0,13.19,4t4.73,9q0,5-4.6,20.52l-0.75,2.74q-6.84,24-8.21,39.18t-1.37,24.51c0,5.06,23.89-5.84,25.63,2.62,0.25,1.49-35.54,33.95-39.69,33.95q-16.42,0-16.42-24.88,0-21.15,6-51.5Q238.95,465.61,239.94,459.64ZM291.48,381q0,8.83-8,15.49t-13.81,6.65q-7.46,0-13.25-6.22t-5.78-12.44q0-9,5.72-14.49t16.42-5.54q8.33,0,13.5,4.91A15.54,15.54,0,0,1,291.48,381Z" transform="translate(-40 -227.18)"/><path class="cls-1" d="M1045.23,459.31v0.12q4-22.64,4-25.87,0-9.2,4-15.42a12.72,12.72,0,0,1,11.26-6.22q8.46,0,13.19,4t4.73,9q0,5-4.6,20.52l-0.75,2.74q-6.84,24-8.21,39.18t-1.37,24.51c0,5.06,23.89-5.84,25.63,2.62,0.25,1.49-35.54,33.95-39.69,33.95q-16.42,0-16.42-24.88,0-21.15,6-51.5Q1044.23,465.28,1045.23,459.31Zm51.54-78.69q0,8.83-8,15.49T1075,402.76q-7.46,0-13.25-6.22T1056,384.1q0-9,5.72-14.49t16.42-5.54q8.33,0,13.5,4.91A15.54,15.54,0,0,1,1096.77,380.62Z" transform="translate(-40 -227.18)"/><path class="cls-1" d="M591.42,499.53Q578,521.47,560.31,534.38T524.45,547.3q-10.77,0-21.74-10.16t-11-31.22q0-14.92,8.39-45,7.27-24.82,7.27-37.74,5.59-10.53,17.48-10.53,8.11,0,12.93,4.83t4.82,9.72q0,8.91-7,25.33-4.06,9.78-8.74,27.65T522.21,503q0,16.68,7.69,16.68,12.16,0,32.86-20.94t27-42.88q6.29-21.44,11.18-28.08t13.85-6.65q14.54,0,14.54,14.54,0,2.13-2.38,8.53-8.25,22.19-8.25,50,0,32.6,12.3,39,4,2.13,4.05,5.27,0,4.51-7.13,8.53a27.76,27.76,0,0,1-13.56,4q-11,0-17-14T591.42,499.53Z" transform="translate(-40 -227.18)"/><path class="cls-1" d="M712.36,545.28c3.83-8.35-9.67-13.71-27.72-22.62q-33.2-17-42.38-29.22a43.5,43.5,0,0,1-9.18-26.65q0-30.33,32-53T724.77,391Q752,391,752,416.23q0,6.68-6.2,12t-10.55,5.31q-1.77,0-6.28-2.4t-6.93-2.4q-14.34,0-31.58,10.28T673.2,463q0,6.68,6.12,12.94c4.08,4.17,12,10.36,25,15.68C747,509.19,766,537.19,748,564.71c-17.7,27.16-85.36,33.42-127.15,24-50.56-11.43-78.5-25.86-73.28-32.66,4.37-5.71,63.15,9.49,101.94,9.07C684.47,564.71,708.29,554.15,712.36,545.28Z" transform="translate(-40 -227.18)"/><path class="cls-1" d="M868.76,482.3a96.79,96.79,0,0,1-30.5,47.77q-22.47,19.44-44.87,19.44-17.74,0-29.24-13.14t-11.5-32.27q0-31.24,21.09-61.51t51.17-30.27q20.49,0,33.19,15.32t12.7,36.51a80,80,0,0,1-2,18v0.12ZM806.45,444q-8.39,7.51-16.42,24a74.82,74.82,0,0,0-8,33.06q0,10.05,3.66,16.59t9.65,6.54q14.86,0,30.92-17.8t16.06-40q0-12.47-5.21-20.52a16.43,16.43,0,0,0-14.56-8.05A23.58,23.58,0,0,0,806.57,444h-0.12Z" transform="translate(-40 -227.18)"/><path class="cls-1" d="M980.88,531.94q-5.8-12.11-7.28-44.58-1.42-33.78-11.42-34.22-9.47-.41-34.27,33.61T897,537.25a17.22,17.22,0,0,1-4.77,8.09q-3.37,3.14-6.52,3-20-.87-19.19-19.15,0.27-6.18,5.17-28,6.36-28.18,8.15-69.2,0.27-6.18,6-13t11.75-6.54q7.62,0.33,11.54,4.32t3.19,20.42q-0.54,12.49-9.6,48.06,31.44-65.54,66.55-64,30.5,1.33,33.67,49.55,3.13,49.14,10,49.44a22.41,22.41,0,0,0,7-1,25.42,25.42,0,0,1,7.56-1.25q6.31,0.28,6,7.64-0.29,6.71-9.3,13.89T1002,546.17q-15.25-.66-21.25-14.23h0.13Z" transform="translate(-40 -227.18)"/><path class="cls-1" d="M1135.58,549.21q-19,0-28.9-10.36t-9.9-28.79q0-29,23.61-62.76t46.29-33.74q10.94,0,18.65,10.88t7.72,22.63q0,11.05-4.09,14.91t-7.89,3.86q-11.17,0-13-15.43-1.38-11.28-5.64-11.28-9,0-23.72,25.56t-14.74,44.79q0,15.55,16.81,15.55c12.36,0,23.37-4.34,37.43-10.47,31.1-13.55,51.68-23.82,53.67-19.13,2.31,5.44-23.4,20.86-42.54,32.11C1175.06,535.92,1150.47,549.21,1135.58,549.21Z" transform="translate(-40 -227.18)"/><path class="cls-1" d="M438.2,445.83l42.1-7.08q18.42-2.93,18.43-13.79,0-5.37-2.07-7.26t-8.54-1.89q-3.78,0-42.59,3.42,10.37-35.75,10.37-37.7a13.09,13.09,0,0,0-3.78-9.09q-3.78-4.09-10.49-4.09-12.08,0-15.5,14.89-5.74,23.92-10.86,38.68a104.26,104.26,0,0,0-51.18,14.79c-14.28,8.76-21.77,20.24-31.61,40l-2.07,3.91,3.05-18.79a103,103,0,0,1,3.29-14.89q5.49-18.06,5.49-23.79a12.14,12.14,0,0,0-3.42-8.3q-3.42-3.78-10-3.78A18.29,18.29,0,0,0,317.47,415q-5.12,3.91-6.53,8.36t-2.5,16.41q-0.25,3.05-.85,8.42-2.32,20.62-2.81,34.9-0.49,15.13-.49,24,0,21.72,3.54,31.3t12,9.58q7.93,0,12.57-4.09t6-14.34c2.93-23.67,15.09-51.31,31.73-67,16.26-15.33,32.92-13.83,38.13-14.4C400,481,395.86,502.7,395.86,513.68c0,11.88,2.83,20.86,8.48,27.21s13.85,9.46,24.59,9.46q19.28,0,36.61-13.64t17.33-24.36a6.29,6.29,0,0,0-2.13-4.71,7.94,7.94,0,0,0-5.67-2q-4.39,0-10.74,5.25-10.25,8.3-16.53,10.68a36.75,36.75,0,0,1-13.12,2.38,7.36,7.36,0,0,1-7-4q-2.14-4-2.13-14,0-5.73,5.8-32.94T438.2,445.83Z" transform="translate(-40 -227.18)"/></svg>