<?xml version="1.0" encoding="utf-8"?>
<!-- Generator: Adobe Illustrator 19.2.1, SVG Export Plug-In . SVG Version: 6.00 Build 0)  -->
<svg version="1.1" id="Layer_1" xmlns="http://www.w3.org/2000/svg" xmlns:xlink="http://www.w3.org/1999/xlink" x="0px" y="0px"
	 viewBox="0 0 1280 800" style="enable-background:new 0 0 1280 800;" xml:space="preserve">
<g>
	<g>
		<path d="M44.5,363.4c-10.3,5.2,3.8-19.8,22.1-40.5c20.9-23.7,55.6-47.4,65.3-42.2c10.9,5.9-17.6,54.2-15.7,135.9
			c0.8,33.6,12.4,65.7,19.3,80.7c1.5-2.2,23.2-75.7,86.4-141.4c88.1-91.5,163.7-129.9,176.6-130.8c22.5-1.5-93.2,77.8-146.2,141.2
			c-76.1,91.1-87.7,149.9-89.7,157.5c-1.5,4.9-13.7,15.2-19.2,18.3c-5.5,3-12.1,4.6-19.7,4.6c-3.4,0-6.5-2.5-9.5-7.6
			c-3-5.1-7-14.7-12.1-28.8c-6.3-17-16.7-37.2-21.1-91.6c-3.2-65.3,30.1-105.7-2.6-80.1"/>
		<path d="M240.9,457.6v0.1c2.7-15.1,4-23.7,4-25.9c0-6.1,1.3-11.3,4-15.4c2.7-4.1,6.4-6.2,11.3-6.2c5.6,0,10,1.3,13.2,4
			c3.2,2.7,4.7,5.6,4.7,9c0,3.3-1.5,10.2-4.6,20.5l-0.7,2.7c-4.6,16-7.3,29.1-8.2,39.2c-0.9,10.1-1.4,18.3-1.4,24.5
			c0,5.1,23.9-5.8,25.6,2.6c0.2,1.5-35.5,33.9-39.7,33.9c-10.9,0-16.4-8.3-16.4-24.9c0-14.1,2-31.3,6-51.5
			C239.5,465.8,240.3,461.6,240.9,457.6z M292.5,379c0,5.9-2.7,11.1-8,15.5c-5.3,4.4-9.9,6.7-13.8,6.7c-5,0-9.4-2.1-13.2-6.2
			c-3.9-4.1-5.8-8.3-5.8-12.4c0-6,1.9-10.8,5.7-14.5c3.8-3.7,9.3-5.5,16.4-5.5c5.6,0,10.1,1.6,13.5,4.9
			C290.8,370.6,292.5,374.5,292.5,379z"/>
		<path d="M1046.2,457.3v0.1c2.7-15.1,4-23.7,4-25.9c0-6.1,1.3-11.3,4-15.4c2.7-4.1,6.4-6.2,11.3-6.2c5.6,0,10,1.3,13.2,4
			c3.2,2.7,4.7,5.6,4.7,9c0,3.3-1.5,10.2-4.6,20.5l-0.7,2.7c-4.6,16-7.3,29.1-8.2,39.2c-0.9,10.1-1.4,18.3-1.4,24.5
			c0,5.1,23.9-5.8,25.6,2.6c0.2,1.5-35.5,33.9-39.7,33.9c-10.9,0-16.4-8.3-16.4-24.9c0-14.1,2-31.3,6-51.5
			C1044.8,465.5,1045.6,461.3,1046.2,457.3z M1097.8,378.6c0,5.9-2.7,11.1-8,15.5c-5.3,4.4-9.9,6.7-13.8,6.7c-5,0-9.4-2.1-13.2-6.2
			c-3.9-4.1-5.8-8.3-5.8-12.4c0-6,1.9-10.8,5.7-14.5c3.8-3.7,9.3-5.5,16.4-5.5c5.6,0,10.1,1.6,13.5,4.9
			C1096,370.3,1097.8,374.1,1097.8,378.6z"/>
		<path d="M592.4,497.5c-8.9,14.6-19.3,26.2-31.1,34.9c-11.8,8.6-23.7,12.9-35.9,12.9c-7.2,0-14.4-3.4-21.7-10.2
			c-7.3-6.8-11-17.2-11-31.2c0-9.9,2.8-25,8.4-45c4.8-16.5,7.3-29.1,7.3-37.7c3.7-7,9.6-10.5,17.5-10.5c5.4,0,9.7,1.6,12.9,4.8
			c3.2,3.2,4.8,6.5,4.8,9.7c0,5.9-2.3,14.4-7,25.3c-2.7,6.5-5.6,15.7-8.7,27.6c-3.1,11.9-4.7,19.5-4.7,22.9
			c0,11.1,2.6,16.7,7.7,16.7c8.1,0,19.1-7,32.9-20.9c13.8-14,22.8-28.3,27-42.9c4.2-14.3,7.9-23.7,11.2-28.1
			c3.3-4.4,7.9-6.6,13.8-6.6c9.7,0,14.5,4.8,14.5,14.5c0,1.4-0.8,4.3-2.4,8.5c-5.5,14.8-8.2,31.5-8.2,50c0,21.7,4.1,34.7,12.3,39
			c2.7,1.4,4.1,3.2,4.1,5.3c0,3-2.4,5.9-7.1,8.5c-4.8,2.7-9.3,4-13.6,4c-7.4,0-13-4.7-17-14C594.4,525.8,592.4,513.2,592.4,497.5z"
			/>
		<path d="M713.4,543.3c3.8-8.3-9.7-13.7-27.7-22.6c-22.1-11.3-36.3-21.1-42.4-29.2c-6.1-8.2-9.2-17.1-9.2-26.7
			c0-20.2,10.7-37.9,32-53c21.3-15.1,41.2-22.7,59.7-22.7c18.2,0,27.2,8.4,27.2,25.2c0,4.5-2.1,8.5-6.2,12
			c-4.1,3.5-7.7,5.3-10.6,5.3c-1.2,0-3.3-0.8-6.3-2.4c-3-1.6-5.3-2.4-6.9-2.4c-9.6,0-20.1,3.4-31.6,10.3
			c-11.5,6.9-17.2,14.9-17.2,24c0,4.5,2,8.8,6.1,12.9c4.1,4.2,12,10.4,25,15.7c42.7,17.5,61.7,45.6,43.8,73.1
			c-17.7,27.2-85.4,33.4-127.1,24c-50.6-11.4-78.5-25.9-73.3-32.7c4.4-5.7,63.2,9.5,101.9,9.1C685.5,562.7,709.3,552.2,713.4,543.3z
			"/>
		<path d="M869.8,480.3c-5.4,18.9-15.5,34.8-30.5,47.8c-15,13-29.9,19.4-44.9,19.4c-11.8,0-21.6-4.4-29.2-13.1
			c-7.7-8.8-11.5-19.5-11.5-32.3c0-20.8,7-41.3,21.1-61.5c14.1-20.2,31.1-30.3,51.2-30.3c13.7,0,24.7,5.1,33.2,15.3
			c8.5,10.2,12.7,22.4,12.7,36.5c0,6.1-0.7,12.2-2,18V480.3z M807.4,442c-5.6,5-11.1,13-16.4,24c-5.4,11-8,22-8,33.1
			c0,6.7,1.2,12.2,3.7,16.6c2.4,4.4,5.7,6.5,9.6,6.5c9.9,0,20.2-5.9,30.9-17.8c10.7-11.9,16.1-25.2,16.1-40c0-8.3-1.7-15.2-5.2-20.5
			c-3.5-5.4-8.3-8.1-14.6-8.1c-5.9,0-11.2,2.1-15.9,6.2H807.4z"/>
		<path d="M981.9,529.9c-3.9-8.1-6.3-22.9-7.3-44.6c-0.9-22.5-4.8-33.9-11.4-34.2c-6.3-0.3-17.7,10.9-34.3,33.6
			c-16.5,22.7-26.8,39.5-30.9,50.5c-0.9,3.3-2.5,6-4.8,8.1c-2.2,2.1-4.4,3.1-6.5,3c-13.3-0.6-19.7-7-19.2-19.1
			c0.2-4.1,1.9-13.4,5.2-28c4.2-18.8,7-41.8,8.2-69.2c0.2-4.1,2.2-8.4,6-13c3.8-4.5,7.7-6.7,11.7-6.5c5.1,0.2,8.9,1.7,11.5,4.3
			c2.6,2.7,3.7,9.5,3.2,20.4c-0.4,8.3-3.6,24.3-9.6,48.1c21-43.7,43.1-65,66.5-64c20.3,0.9,31.6,17.4,33.7,49.5
			c2.1,32.8,5.4,49.2,10,49.4c2,0.1,4.4-0.2,7-1c3.2-0.9,5.7-1.3,7.6-1.3c4.2,0.2,6.2,2.7,6,7.6c-0.2,4.5-3.3,9.1-9.3,13.9
			c-6,4.8-13.4,7-22.2,6.6c-10.2-0.4-17.3-5.2-21.2-14.2L981.9,529.9z"/>
		<path d="M1136.6,547.2c-12.7,0-22.3-3.5-28.9-10.4c-6.6-6.9-9.9-16.5-9.9-28.8c0-19.3,7.9-40.3,23.6-62.8
			c15.7-22.5,31.2-33.7,46.3-33.7c7.3,0,13.5,3.6,18.7,10.9c5.1,7.3,7.7,14.8,7.7,22.6c0,7.4-1.4,12.3-4.1,14.9
			c-2.7,2.6-5.4,3.9-7.9,3.9c-7.4,0-11.8-5.1-13-15.4c-0.9-7.5-2.8-11.3-5.6-11.3c-6,0-13.9,8.5-23.7,25.6
			c-9.8,17-14.7,32-14.7,44.8c0,10.4,5.6,15.5,16.8,15.5c12.4,0,23.4-4.3,37.4-10.5c31.1-13.6,51.7-23.8,53.7-19.1
			c2.3,5.4-23.4,20.9-42.5,32.1C1176.1,533.9,1151.5,547.2,1136.6,547.2z"/>
	</g>
	<path d="M439.2,443.8l42.1-7.1c12.3-2,18.4-6.5,18.4-13.8c0-3.6-0.7-6-2.1-7.3c-1.4-1.3-4.2-1.9-8.5-1.9c-2.5,0-16.7,1.1-42.6,3.4
		c6.9-23.8,10.4-36.4,10.4-37.7c0-3.3-1.3-6.4-3.8-9.1c-2.5-2.7-6-4.1-10.5-4.1c-8.1,0-13.2,5-15.5,14.9
		c-3.8,15.9-7.4,28.8-10.9,38.7c0,0-26.2-0.5-51.2,14.8c-14.3,8.8-21.8,20.2-31.6,40l-2.1,3.9l3.1-18.8c0.9-5.8,2-10.7,3.3-14.9
		c3.7-12,5.5-20,5.5-23.8c0-3-1.1-5.8-3.4-8.3c-2.3-2.5-5.6-3.8-10-3.8c-4.1,0-7.9,1.3-11.3,3.9c-3.4,2.6-5.6,5.4-6.5,8.4
		c-0.9,3-1.8,8.4-2.5,16.4c-0.2,2-0.4,4.8-0.9,8.4c-1.5,13.7-2.5,25.4-2.8,34.9c-0.3,10.1-0.5,18.1-0.5,24c0,14.5,1.2,24.9,3.5,31.3
		c2.4,6.4,6.3,9.6,12,9.6c5.3,0,9.5-1.4,12.6-4.1c3.1-2.7,5.1-7.5,6-14.3c2.9-23.7,15.1-51.3,31.7-67c16.3-15.3,32.9-13.8,38.1-14.4
		c-8.2,32.9-12.3,54.5-12.3,65.5c0,11.9,2.8,20.9,8.5,27.2c5.7,6.3,13.8,9.5,24.6,9.5c12.9,0,25.1-4.6,36.6-13.6
		c11.6-9.1,17.3-17.2,17.3-24.4c0-1.8-0.7-3.4-2.1-4.7c-1.4-1.3-3.3-2-5.7-2c-2.9,0-6.5,1.7-10.7,5.2c-6.8,5.5-12.3,9.1-16.5,10.7
		c-4.2,1.6-8.6,2.4-13.1,2.4c-3.3,0-5.6-1.3-7-4c-1.4-2.6-2.1-7.3-2.1-14c0-3.8,1.9-14.8,5.8-32.9
		C436.2,452.9,438.5,443.8,439.2,443.8z"/>
</g>
</svg>
